<svg width="30" height="31" viewBox="0 0 30 31" fill="none" xmlns="http://www.w3.org/2000/svg">
<g clip-path="url(#clip0)">
<path d="M14.9999 1.58856C7.04692 1.58856 0.599915 7.98816 0.599915 15.8827C0.599915 23.7772 7.04692 30.1768 14.9999 30.1768C22.9529 30.1768 29.3999 23.7772 29.3999 15.8827C29.3999 7.98816 22.9529 1.58856 14.9999 1.58856ZM20.5379 17.7156C20.5379 17.7156 21.8114 18.9634 22.1249 19.5426C22.1339 19.5545 22.1384 19.5664 22.1414 19.5723C22.2689 19.7853 22.2989 19.9505 22.2359 20.0741C22.1309 20.2796 21.7709 20.3809 21.6479 20.3898H19.3979C19.2419 20.3898 18.9149 20.3496 18.5189 20.0786C18.2144 19.8672 17.9144 19.5202 17.6219 19.1822C17.1854 18.679 16.8074 18.2442 16.4264 18.2442C16.378 18.2441 16.3299 18.2516 16.2839 18.2665C15.9959 18.3588 15.6269 18.7668 15.6269 19.8538C15.6269 20.1932 15.3569 20.3883 15.1664 20.3883H14.1359C13.7849 20.3883 11.9564 20.2662 10.3364 18.5703C8.35341 16.4932 6.56841 12.327 6.55341 12.2883C6.44091 12.0188 6.67341 11.8744 6.92691 11.8744H9.19941C9.50241 11.8744 9.60141 12.0575 9.67041 12.2198C9.75141 12.4089 10.0484 13.1608 10.5359 14.0066C11.3264 15.3854 11.8109 15.9452 12.1994 15.9452C12.2723 15.9444 12.3438 15.926 12.4079 15.8916C12.9149 15.6117 12.8204 13.8175 12.7979 13.4452C12.7979 13.3753 12.7964 12.6427 12.5369 12.2913C12.3509 12.0367 12.0344 11.9399 11.8424 11.9042C11.9201 11.7977 12.0225 11.7114 12.1409 11.6525C12.4889 11.4798 13.1159 11.4545 13.7384 11.4545H14.0849C14.7599 11.4634 14.9339 11.5066 15.1784 11.5676C15.6734 11.6853 15.6839 12.0024 15.6404 13.0879C15.6269 13.3961 15.6134 13.7445 15.6134 14.1555C15.6134 14.2448 15.6089 14.3401 15.6089 14.4414C15.5939 14.9938 15.5759 15.6206 15.9689 15.8782C16.0202 15.9101 16.0794 15.9271 16.1399 15.9273C16.2764 15.9273 16.6874 15.9273 17.8004 14.0319C18.1437 13.4218 18.4419 12.7878 18.6929 12.1349C18.7154 12.0962 18.7814 11.9771 18.8594 11.931C18.917 11.9018 18.9808 11.887 19.0454 11.8878H21.7169C22.0079 11.8878 22.2074 11.931 22.2449 12.0426C22.3109 12.2198 22.2329 12.7603 21.0134 14.3997L20.4689 15.1129C19.3634 16.5512 19.3634 16.6242 20.5379 17.7156Z" fill="white"/>
</g>
<defs>
<clipPath id="clip0">
<rect width="30" height="29.7794" fill="white" transform="translate(0 0.992676)"/>
</clipPath>
</defs>
</svg>
