<svg width="30" height="31" viewBox="0 0 30 31" fill="none" xmlns="http://www.w3.org/2000/svg">
<g clip-path="url(#clip0)">
<path d="M19.4999 15.2576C19.4999 16.4423 19.0258 17.5785 18.1819 18.4162C17.338 19.2539 16.1934 19.7245 14.9999 19.7245C13.8065 19.7245 12.6619 19.2539 11.818 18.4162C10.9741 17.5785 10.4999 16.4423 10.4999 15.2576C10.4999 15.003 10.5269 14.7543 10.5734 14.5131H8.99995V20.4646C8.99995 20.8785 9.33745 21.2135 9.75445 21.2135H20.2469C20.4468 21.2131 20.6383 21.134 20.7795 20.9936C20.9207 20.8532 20.9999 20.6629 20.9999 20.4646V14.5131H19.4264C19.4729 14.7543 19.4999 15.003 19.4999 15.2576ZM14.9999 18.2356C15.394 18.2355 15.7842 18.1583 16.1482 18.0085C16.5123 17.8588 16.843 17.6393 17.1216 17.3626C17.4002 17.0859 17.6211 16.7575 17.7718 16.3961C17.9225 16.0347 18 15.6473 17.9999 15.2561C17.9998 14.865 17.9221 14.4776 17.7712 14.1163C17.6203 13.7549 17.3992 13.4266 17.1205 13.1501C16.8418 12.8736 16.5109 12.6542 16.1468 12.5046C15.7827 12.355 15.3925 12.2781 14.9984 12.2782C14.2026 12.2784 13.4394 12.5924 12.8768 13.1512C12.3142 13.7099 11.9982 14.4676 11.9984 15.2576C11.9986 16.0476 12.315 16.8052 12.8779 17.3637C13.4408 17.9221 14.2041 18.2358 14.9999 18.2356ZM18.5999 12.1308H20.3984C20.5179 12.1308 20.6325 12.0838 20.7172 12C20.8018 11.9163 20.8496 11.8027 20.8499 11.6841V9.89881C20.8499 9.77995 20.8024 9.66595 20.7177 9.5819C20.633 9.49785 20.5182 9.45063 20.3984 9.45063H18.5999C18.4802 9.45063 18.3654 9.49785 18.2807 9.5819C18.196 9.66595 18.1484 9.77995 18.1484 9.89881V11.6841C18.1499 11.9298 18.3524 12.1308 18.5999 12.1308ZM14.9999 0.963501C11.1808 0.963501 7.51813 2.46948 4.81761 5.15015C2.11708 7.83082 0.599945 11.4666 0.599945 15.2576C0.599945 19.0487 2.11708 22.6844 4.81761 25.3651C7.51813 28.0458 11.1808 29.5517 14.9999 29.5517C16.891 29.5517 18.7635 29.182 20.5106 28.4637C22.2577 27.7453 23.8451 26.6924 25.1823 25.3651C26.5194 24.0378 27.5801 22.462 28.3038 20.7277C29.0275 18.9935 29.3999 17.1348 29.3999 15.2576C29.3999 13.3805 29.0275 11.5217 28.3038 9.7875C27.5801 8.05326 26.5194 6.47748 25.1823 5.15015C23.8451 3.82282 22.2577 2.76992 20.5106 2.05158C18.7635 1.33323 16.891 0.963501 14.9999 0.963501ZM22.4999 21.0482C22.4999 21.958 21.7499 22.7025 20.8334 22.7025H9.16645C8.24995 22.7025 7.49995 21.958 7.49995 21.0482V9.46701C7.49995 8.55725 8.24995 7.81277 9.16645 7.81277H20.8334C21.7499 7.81277 22.4999 8.55725 22.4999 9.46701V21.0482Z" fill="white"/>
</g>
<defs>
<clipPath id="clip0">
<rect width="30" height="29.7794" fill="white" transform="translate(0 0.367676)"/>
</clipPath>
</defs>
</svg>
