<svg width="15" height="14" viewBox="0 0 15 14" fill="none" xmlns="http://www.w3.org/2000/svg">
<path d="M3.35732 13.5C3.19297 13.5 3.02978 13.4518 2.8905 13.3573C2.63106 13.1807 2.50986 12.8772 2.58047 12.5843L3.54546 8.59219L0.272828 5.89683C0.032267 5.69961 -0.0596313 5.38727 0.0391336 5.10149C0.137899 4.81624 0.406612 4.61429 0.724766 4.58666L5.05486 4.21747L6.76682 0.454958C6.89305 0.178523 7.18054 0 7.49995 0C7.81936 0 8.10684 0.178523 8.23308 0.454313L9.94504 4.21747L14.2744 4.58666C14.5933 4.61364 14.862 4.81624 14.9608 5.10149C15.0595 5.38674 14.9682 5.69961 14.7276 5.89683L11.455 8.59165L12.42 12.5836C12.4907 12.8772 12.3694 13.1807 12.1101 13.3567C11.8513 13.5328 11.5063 13.5463 11.2338 13.3925L7.49995 11.297L3.76611 13.3937C3.63988 13.4641 3.49923 13.5 3.35732 13.5ZM7.49995 10.3943C7.64186 10.3943 7.7824 10.4301 7.90874 10.5005L11.4326 12.4798L10.5218 8.71192C10.4568 8.44376 10.5538 8.16378 10.7744 7.98235L13.8645 5.43725L9.77624 5.08859C9.48189 5.06333 9.22874 4.88954 9.11372 4.63481L7.49995 1.08414L5.88423 4.63535C5.77048 4.88836 5.51733 5.06215 5.22366 5.08741L1.13482 5.43607L4.2248 7.98117C4.44613 8.16313 4.54295 8.44258 4.47738 8.71138L3.56732 12.4792L7.09116 10.5005C7.21739 10.4301 7.35804 10.3943 7.49995 10.3943ZM5.02178 4.29024C5.02178 4.29024 5.02178 4.29088 5.0211 4.29142L5.02178 4.29024ZM9.97685 4.28852L9.97754 4.2897C9.97754 4.28905 9.97754 4.28905 9.97685 4.28852Z" fill="#7D91B1"/>
<path d="M7.49995 10.3943C7.64186 10.3943 7.7824 10.4301 7.90874 10.5005L11.4326 12.4798L10.5218 8.71192C10.4568 8.44376 10.5538 8.16378 10.7744 7.98235L13.8645 5.43725L9.77624 5.08859C9.48189 5.06333 9.22874 4.88954 9.11372 4.63481L7.49995 1.08414L5.88423 4.63535C5.77048 4.88836 5.51733 5.06215 5.22366 5.08741L1.13482 5.43607L4.2248 7.98117C4.44613 8.16313 4.54295 8.44258 4.47738 8.71138L3.56732 12.4792L7.09116 10.5005C7.21739 10.4301 7.35804 10.3943 7.49995 10.3943Z" fill="#7D91B1"/>
</svg>
